<svg xmlns="http://www.w3.org/2000/svg" viewBox="0 0 64 64">
  <defs>
    <linearGradient id="bg" x1="0%" y1="0%" x2="100%" y2="100%">
      <stop offset="0%" stop-color="#6366f1"/>
      <stop offset="100%" stop-color="#3b82f6"/>
    </linearGradient>
  </defs>
  <rect width="64" height="64" rx="14" fill="url(#bg)"/>
  <path d="M42 38.5c-1.1-.7-4.2-2.6-5.1-2.9-.9-.3-1.5-.1-2.1.6-.6.7-1.4 1.7-1.8 2.1-.4.4-.8.4-1.4.1-3-1.5-5.1-3.4-6.8-6.3-.3-.5-.1-.9.3-1.3.5-.5 1-1.1 1.4-1.7.4-.5.5-1 .2-1.7-.3-.7-2.1-4.2-2.8-5.3-.6-1-1.3-.9-1.9-.9-.5 0-1.1 0-1.7.1C19.8 21.5 19 22.7 19 25c0 2.5 1.8 5.2 3.8 7.5 2 2.4 5.6 6.4 10.9 8.3 2.3.8 4 1.3 5.4 1.5 1.7.3 3.2.2 4.4-.5 1.3-.8 2.6-2.5 2.9-4 .3-1.3.1-2.1-.4-2.8z" fill="white"/>
</svg>
